<svg width="170" height="33" viewBox="0 0 170 33" fill="none" xmlns="http://www.w3.org/2000/svg">
<g clip-path="url(#clip0_202_284)">
<path d="M9.35504 32.5356C14.6934 32.5356 18.3421 29.6135 18.3421 25.2829V24.8133H13.4003V25.0756C13.4003 27.2265 11.8454 27.9977 9.25397 27.9977C6.30234 28.003 4.94185 26.896 4.94185 23.8061C4.94185 20.7161 6.30234 19.5751 9.25397 19.5751C11.8454 19.5751 13.4003 20.3489 13.4003 22.4972V22.7595H18.3421V22.29C18.3421 17.9252 14.6934 15.0372 9.35504 15.0372C3.65391 15.0372 0 18.4288 0 23.8008C0 29.1099 3.64872 32.5356 9.35504 32.5356ZM25.4581 32.1998V22.4631C25.4581 20.3489 26.2563 19.3154 28.4772 19.3154C30.5011 19.3154 31.2318 20.1207 31.2318 21.9673V23.7143H36.2074V20.9207C36.2074 17.6314 34.681 15.0451 30.9649 15.0451C27.6142 15.0451 25.8572 17.1278 25.3934 19.8479H25.0953V15.3887H20.4722V32.1998H25.4581ZM46.8659 32.5356C52.5359 32.5356 56.3505 29.1099 56.3505 23.8061C56.3505 18.4341 52.5359 15.0425 46.8659 15.0425C41.1959 15.0425 37.3787 18.4341 37.3787 23.8061C37.3787 29.1099 41.2036 32.5356 46.8659 32.5356ZM46.8659 28.0764C43.4815 28.0764 42.3205 26.7649 42.3205 23.8113C42.3205 20.8578 43.4815 19.4807 46.8659 19.4807C50.2503 19.4807 51.4087 20.8578 51.4087 23.8113C51.4087 26.7649 50.214 28.0711 46.8659 28.0711V28.0764ZM63.3577 32.1998V23.7064C63.3577 20.7843 64.2207 19.5751 67.2449 19.5751C70.0954 19.5751 71.0594 20.6243 71.0594 23.4021V32.1998H76.035V23.7064C76.035 20.7843 76.8979 19.5751 79.9221 19.5751C82.7727 19.5751 83.7367 20.6243 83.7367 23.4021V32.1998H88.7122V21.7234C88.7122 17.8964 86.6209 15.0425 82.3425 15.0425C78.0641 15.0425 76.3822 17.6944 75.9728 20.5509H75.6696C75.3042 17.4295 73.3373 15.0425 69.4994 15.0425C65.322 15.0425 63.6635 17.6655 63.2644 20.4827H63.0053V15.3782H58.3926V32.1998H63.3577ZM96.3388 32.5356C100.019 32.5356 102.341 30.9617 103.105 28.3387H103.364V32.1998H108.008V22.3293C108.008 17.9305 105.388 15.0425 99.8476 15.0425C94.3745 15.0425 90.9253 17.9278 90.9253 22.0932V22.1955H95.9345V22.0591C95.9345 20.1469 96.9711 19.4754 99.4848 19.4754C102.138 19.4754 103.1 20.0787 103.1 22.2611V22.8985L95.9682 23.6382C92.418 24.0081 90.5936 25.553 90.5936 28.0371C90.5988 30.8568 92.7548 32.5356 96.3388 32.5356ZM95.608 27.7013C95.608 26.896 96.1392 26.5603 97.3339 26.458L103.105 25.7865C102.973 28.1708 101.148 28.9761 97.7641 28.9761C96.3051 28.9761 95.608 28.6063 95.608 27.7013ZM115.51 32.1998V26.1222H119.325L123.471 32.1998H129.343L123.383 23.5044L129.452 15.373H123.538L119.294 21.6185H115.51V9.70459H110.535V32.1998H115.51ZM139.509 32.5356C145.179 32.5356 148.994 29.1099 148.994 23.8061C148.994 18.4341 145.179 15.0425 139.509 15.0425C133.839 15.0425 130.022 18.4341 130.022 23.8061C130.022 29.1099 133.837 32.5356 139.509 32.5356ZM139.509 28.0764C136.125 28.0764 134.964 26.7649 134.964 23.8113C134.964 20.8578 136.125 19.4807 139.509 19.4807C142.894 19.4807 144.052 20.8578 144.052 23.8113C144.052 26.7649 142.857 28.0711 139.509 28.0711V28.0764ZM158.458 32.5356C162.272 32.5356 164.462 30.8568 165.092 27.5334H165.351V32.1998H169.997V9.70459H165.022V19.8453H164.724C164.159 17.0229 162.132 15.0425 158.188 15.0425C153.246 15.0425 150.414 18.4341 150.414 23.8061C150.43 29.1099 153.283 32.5356 158.458 32.5356ZM155.485 23.8061C155.485 20.7161 156.978 19.6433 160.15 19.6433C163.322 19.6433 165.027 20.7161 165.027 23.6382V23.9005C165.027 26.8226 163.301 27.9295 160.15 27.9295C156.999 27.9295 155.485 26.8619 155.485 23.8061Z" fill="#060D2E"/>
<path d="M131.732 11.7847L138.269 4.87968C138.957 4.15236 140.102 4.11109 140.841 4.78692L148.494 11.7847" stroke="#7148EB" stroke-width="4.45827" stroke-miterlimit="10"/>
</g>
<defs>
<clipPath id="clip0_202_284">
<rect width="170" height="32.072" fill="white" transform="translate(0 0.46402)"/>
</clipPath>
</defs>
</svg>
